<svg width="256" height="256" viewBox="0 0 256 256" fill="none" xmlns="http://www.w3.org/2000/svg">
  <defs>
    <linearGradient id="g1" x1="36" y1="28" x2="220" y2="228" gradientUnits="userSpaceOnUse">
      <stop stop-color="#2563EB"/>
      <stop offset="0.55" stop-color="#0EA5E9"/>
      <stop offset="1" stop-color="#7C3AED"/>
    </linearGradient>
    <linearGradient id="g2" x1="102" y1="80" x2="180" y2="176" gradientUnits="userSpaceOnUse">
      <stop stop-color="white" stop-opacity="0.96"/>
      <stop offset="1" stop-color="white" stop-opacity="0.76"/>
    </linearGradient>
  </defs>
  <rect x="20" y="20" width="216" height="216" rx="56" fill="url(#g1)"/>
  <circle cx="88" cy="170" r="16" fill="white" fill-opacity="0.94"/>
  <circle cx="118" cy="118" r="14" fill="white" fill-opacity="0.94"/>
  <circle cx="164" cy="88" r="12" fill="white" fill-opacity="0.94"/>
  <path d="M88 170L118 118L164 88" stroke="url(#g2)" stroke-width="16" stroke-linecap="round" stroke-linejoin="round"/>
  <path d="M164 88L190 112" stroke="url(#g2)" stroke-width="14" stroke-linecap="round"/>
  <path d="M156 142H206V186C206 194.837 198.837 202 190 202H156V142Z" fill="white" fill-opacity="0.18"/>
  <path d="M156 142H190C198.837 142 206 149.163 206 158V176H156V142Z" fill="white" fill-opacity="0.22"/>
  <path d="M174 156H188" stroke="white" stroke-opacity="0.94" stroke-width="10" stroke-linecap="round"/>
  <path d="M174 174H188" stroke="white" stroke-opacity="0.82" stroke-width="10" stroke-linecap="round"/>
  <path d="M72 62C72 53.1634 79.1634 46 88 46H142" stroke="white" stroke-opacity="0.54" stroke-width="10" stroke-linecap="round"/>
</svg>
